<svg xmlns="http://www.w3.org/2000/svg" viewBox="-95 20 640 400" fill="none" color="#F5F5F0">
  <!-- eldee construction grid — monogram v2.1 (generuje scripts/generate-construction.mjs) -->
  <line x1="-80" y1="78.6" x2="300" y2="78.6" stroke="#7a7a7a" stroke-width="1" stroke-dasharray="4 5"/><line x1="-80" y1="111.6" x2="300" y2="111.6" stroke="#7a7a7a" stroke-width="1" stroke-dasharray="2 6"/><line x1="-80" y1="285" x2="300" y2="285" stroke="#7a7a7a" stroke-width="1" stroke-dasharray="4 5"/><line x1="-80" y1="318" x2="300" y2="318" stroke="#7a7a7a" stroke-width="1" stroke-dasharray="4 5"/>
  <line x1="300" y1="78.6" x2="300" y2="285" stroke="#7a7a7a" stroke-width="1"/>
  <line x1="296" y1="78.6" x2="304" y2="78.6" stroke="#7a7a7a" stroke-width="1"/>
  <line x1="296" y1="285" x2="304" y2="285" stroke="#7a7a7a" stroke-width="1"/>
  <line x1="335" y1="285" x2="335" y2="318" stroke="#7a7a7a" stroke-width="1"/>
  <line x1="331" y1="285" x2="339" y2="285" stroke="#7a7a7a" stroke-width="1"/>
  <line x1="331" y1="318" x2="339" y2="318" stroke="#7a7a7a" stroke-width="1"/>
  <line x1="46" y1="360" x2="118" y2="360" stroke="#7a7a7a" stroke-width="1"/>
  <line x1="46" y1="356" x2="46" y2="364" stroke="#7a7a7a" stroke-width="1"/>
  <line x1="118" y1="356" x2="118" y2="364" stroke="#7a7a7a" stroke-width="1"/>
  <defs>
    <mask id="ld-knockout-brand" maskUnits="userSpaceOnUse" x="3.2" y="46" width="301.5" height="301.5">
      <rect x="3.2" y="46" width="301.5" height="301.5" fill="white"/>
      <path d="M56.32 285.00V78.60H95.02V250.94H145.85V285.00Z" fill="black" stroke="black" stroke-width="25" stroke-linejoin="round"/>
    </mask>
  </defs>
  <path d="M128.32 318.00V111.60H180.69Q209.72 111.60 222.68 123.92Q235.65 136.24 236.16 164.49Q236.55 182.42 236.68 198.55Q236.81 214.67 236.68 230.80Q236.55 246.92 236.16 264.85Q235.65 293.23 222.68 305.62Q209.72 318.00 180.69 318.00ZM167.02 283.94H180.69Q188.82 283.94 193.08 280.20Q197.34 276.46 197.46 269.50Q197.85 255.69 198.04 242.02Q198.24 228.34 198.24 214.67Q198.24 201.00 198.04 187.26Q197.85 173.52 197.46 159.85Q197.34 153.01 193.08 149.33Q188.82 145.66 180.69 145.66H167.02Z" fill="currentColor" mask="url(#ld-knockout-brand)"/>
  <path d="M56.32 285.00V78.60H95.02V250.94H145.85V285.00Z" fill="currentColor"/>
  <ellipse cx="182.3" cy="77" rx="66" ry="13" stroke="#C9A227" stroke-width="11"/>

  <text x="-88" y="74" font-family="ui-monospace, monospace" font-size="11" fill="#9a9a9a" text-anchor="start">vršek L</text><text x="-88" y="107" font-family="ui-monospace, monospace" font-size="11" fill="#9a9a9a" text-anchor="start">vršek D</text><text x="-88" y="280" font-family="ui-monospace, monospace" font-size="11" fill="#9a9a9a" text-anchor="start">baseline L</text><text x="-88" y="338" font-family="ui-monospace, monospace" font-size="11" fill="#9a9a9a" text-anchor="start">baseline D</text><text x="308" y="185" font-family="ui-monospace, monospace" font-size="11" fill="#9a9a9a" text-anchor="start">výška verzálek</text><text x="308" y="199" font-family="ui-monospace, monospace" font-size="11" fill="#9a9a9a" text-anchor="start">206,4 j.</text><text x="343" y="306" font-family="ui-monospace, monospace" font-size="11" fill="#9a9a9a" text-anchor="start">Δy 33 j.</text><text x="82" y="380" font-family="ui-monospace, monospace" font-size="11" fill="#9a9a9a" text-anchor="middle">Δx origin L→D 72 j.</text><text x="258" y="50" font-family="ui-monospace, monospace" font-size="11" fill="#C9A227" text-anchor="start">svatozář · rx 66 · ry 13 · tah 11</text><line x1="252" y1="55" x2="240" y2="68" stroke="#C9A227" stroke-width="1"/><text x="168" y="252" font-family="ui-monospace, monospace" font-size="11" fill="#e0427a" text-anchor="start">← spára 25 j. (≈1,8 mm)</text><text x="-88" y="400" font-family="ui-monospace, monospace" font-size="10" fill="#9a9a9a" text-anchor="start">Jednotky: fs-258 systém · mm hodnoty platí při nášivce 35 mm</text>
</svg>