<svg xmlns="http://www.w3.org/2000/svg" viewBox="0 0 258 110" fill="none">
  <ellipse cx="129.0" cy="55" rx="123.2" ry="56" stroke="#C9A227" stroke-width="2.5" fill="none"/>
  <g transform="translate(19.8, 5)">
    <path d="M22.70 80.96Q12.86 80.96 8.35 76.98Q3.84 72.99 3.31 63.87Q3.22 62.24 3.17 58.86Q3.12 55.47 3.12 51.49Q3.12 47.50 3.17 44Q3.22 40.50 3.31 38.72Q3.98 29.41 8.42 25.42Q12.86 21.44 22.51 21.44Q32.16 21.44 36.53 25.33Q40.90 29.22 41.33 38.14Q41.38 39.20 41.40 41.86Q41.42 44.53 41.40 47.72Q41.38 50.91 41.23 53.60L17.52 53.60Q17.52 56.67 17.59 59.67Q17.66 62.67 17.71 65.41Q17.81 68 18.96 69.10Q20.11 70.21 22.70 70.21Q25.01 70.21 26.04 69.10Q27.07 68 27.22 65.41Q27.31 64.26 27.31 62.19Q27.31 60.13 27.22 57.63L41.23 57.63Q41.33 58.11 41.38 60.20Q41.42 62.29 41.33 63.87Q40.90 72.99 36.55 76.98Q32.21 80.96 22.70 80.96M17.52 43.71L27.31 43.71Q27.31 41.98 27.29 40.45Q27.26 38.91 27.24 37.86Q27.22 36.80 27.22 36.51Q27.07 34.21 25.99 33.20Q24.91 32.19 22.51 32.19Q20.02 32.19 18.91 33.20Q17.81 34.21 17.71 36.51Q17.66 38.24 17.64 40.04Q17.62 41.84 17.52 43.71M81.22 80L47.90 80L47.90 3.20L62.30 3.20L62.30 67.33L81.22 67.33L81.22 80M105.98 80L86.50 80L86.50 3.20L105.98 3.20Q116.78 3.20 121.61 7.78Q126.43 12.37 126.62 22.88Q126.77 29.55 126.82 35.55Q126.86 41.55 126.82 47.55Q126.77 53.55 126.62 60.22Q126.43 70.78 121.61 75.39Q116.78 80 105.98 80M100.90 15.87L100.90 67.33L105.98 67.33Q109.01 67.33 110.59 65.94Q112.18 64.54 112.22 61.95Q112.37 56.82 112.44 51.73Q112.51 46.64 112.51 41.55Q112.51 36.46 112.44 31.35Q112.37 26.24 112.22 21.15Q112.18 18.61 110.59 17.24Q109.01 15.87 105.98 15.87L100.90 15.87M152.88 80.96Q143.04 80.96 138.53 76.98Q134.02 72.99 133.49 63.87Q133.39 62.24 133.34 58.86Q133.30 55.47 133.30 51.49Q133.30 47.50 133.34 44Q133.39 40.50 133.49 38.72Q134.16 29.41 138.60 25.42Q143.04 21.44 152.69 21.44Q162.34 21.44 166.70 25.33Q171.07 29.22 171.50 38.14Q171.55 39.20 171.58 41.86Q171.60 44.53 171.58 47.72Q171.55 50.91 171.41 53.60L147.70 53.60Q147.70 56.67 147.77 59.67Q147.84 62.67 147.89 65.41Q147.98 68 149.14 69.10Q150.29 70.21 152.88 70.21Q155.18 70.21 156.22 69.10Q157.25 68 157.39 65.41Q157.49 64.26 157.49 62.19Q157.49 60.13 157.39 57.63L171.41 57.63Q171.50 58.11 171.55 60.20Q171.60 62.29 171.50 63.87Q171.07 72.99 166.73 76.98Q162.38 80.96 152.88 80.96M147.70 43.71L157.49 43.71Q157.49 41.98 157.46 40.45Q157.44 38.91 157.42 37.86Q157.39 36.80 157.39 36.51Q157.25 34.21 156.17 33.20Q155.09 32.19 152.69 32.19Q150.19 32.19 149.09 33.20Q147.98 34.21 147.89 36.51Q147.84 38.24 147.82 40.04Q147.79 41.84 147.70 43.71M196.94 80.96Q187.10 80.96 182.59 76.98Q178.08 72.99 177.55 63.87Q177.46 62.24 177.41 58.86Q177.36 55.47 177.36 51.49Q177.36 47.50 177.41 44Q177.46 40.50 177.55 38.72Q178.22 29.41 182.66 25.42Q187.10 21.44 196.75 21.44Q206.40 21.44 210.77 25.33Q215.14 29.22 215.57 38.14Q215.62 39.20 215.64 41.86Q215.66 44.53 215.64 47.72Q215.62 50.91 215.47 53.60L191.76 53.60Q191.76 56.67 191.83 59.67Q191.90 62.67 191.95 65.41Q192.05 68 193.20 69.10Q194.35 70.21 196.94 70.21Q199.25 70.21 200.28 69.10Q201.31 68 201.46 65.41Q201.55 64.26 201.55 62.19Q201.55 60.13 201.46 57.63L215.47 57.63Q215.57 58.11 215.62 60.20Q215.66 62.29 215.57 63.87Q215.14 72.99 210.79 76.98Q206.45 80.96 196.94 80.96M191.76 43.71L201.55 43.71Q201.55 41.98 201.53 40.45Q201.50 38.91 201.48 37.86Q201.46 36.80 201.46 36.51Q201.31 34.21 200.23 33.20Q199.15 32.19 196.75 32.19Q194.26 32.19 193.15 33.20Q192.05 34.21 191.95 36.51Q191.90 38.24 191.88 40.04Q191.86 41.84 191.76 43.71" fill="#F5F5F0"/>
  </g>
</svg>