<svg xmlns="http://www.w3.org/2000/svg" viewBox="0 0 571.28 298.08" fill="none">
  <!-- eldee SOLO wordmark na podkladu - text #C9A227 na #0A0A0A. -->
  <rect width="571.28" height="298.08" rx="29.81" fill="#0A0A0A"/>
  <path transform="translate(82.6 228.04)" d="M47.30 2Q26.80 2 17.40-6.30Q8-14.60 6.90-33.60Q6.70-37 6.60-44.05Q6.50-51.10 6.50-59.40Q6.50-67.70 6.60-75Q6.70-82.30 6.90-86Q8.30-105.40 17.55-113.70Q26.80-122 46.90-122Q67-122 76.10-113.90Q85.20-105.80 86.10-87.20Q86.20-85 86.25-79.45Q86.30-73.90 86.25-67.25Q86.20-60.60 85.90-55L36.50-55Q36.50-48.60 36.65-42.35Q36.80-36.10 36.90-30.40Q37.10-25 39.50-22.70Q41.90-20.40 47.30-20.40Q52.10-20.40 54.25-22.70Q56.40-25 56.70-30.40Q56.90-32.80 56.90-37.10Q56.90-41.40 56.70-46.60L85.90-46.60Q86.10-45.60 86.20-41.25Q86.30-36.90 86.10-33.60Q85.20-14.60 76.15-6.30Q67.10 2 47.30 2M36.50-75.60L56.90-75.60Q56.90-79.20 56.85-82.40Q56.80-85.60 56.75-87.80Q56.70-90 56.70-90.60Q56.40-95.40 54.15-97.50Q51.90-99.60 46.90-99.60Q41.70-99.60 39.40-97.50Q37.10-95.40 36.90-90.60Q36.80-87 36.75-83.25Q36.70-79.50 36.50-75.60MNaN 0LNaN 0LNaN-160LNaN-160LNaN 0M163.90 2Q151.50 2 144.75-5.85QNaN-13.70 137.10-31.80Q136.90-36.50 136.80-44.05Q136.70-51.60 136.70-60Q136.70-68.40 136.80-75.95Q136.90-83.50 137.10-88.20QNaN-106.40 144.95-114.20Q151.90-122 164.30-122Q173.80-122 178.35-118.10Q182.90-114.20 187.10-107L191.30-107L191.30-160L221.30-160L221.30 0L191.30 0L191.30-13L187.10-13Q182.90-5.80 178.15-1.90Q173.40 2 163.90 2M176.30-19.80Q180.40-19.80 184.95-22.15Q189.50-24.50 191.30-28.40L191.30-91.60Q189.50-95.50 184.95-97.85Q180.40-100.20 176.30-100.20Q171.70-100.20 169.55-97.90Q167.40-95.60 167.10-90.80Q166.60-82.10 166.45-70.70Q166.30-59.30 166.45-48.15Q166.60-37 167.10-29.20Q167.40-24.40 169.55-22.10Q171.70-19.80 176.30-19.80M272.80 2Q252.30 2 242.90-6.30Q233.50-14.60 232.40-33.60Q232.20-37 232.10-44.05QNaN-51.10 NaN-59.40QNaN-67.70 232.10-75Q232.20-82.30 232.40-86Q233.80-105.40 243.05-113.70Q252.30-122 272.40-122Q292.50-122 301.60-113.90Q310.70-105.80 311.60-87.20Q311.70-85 311.75-79.45Q311.80-73.90 311.75-67.25Q311.70-60.60 311.40-55L262-55Q262-48.60 262.15-42.35Q262.30-36.10 262.40-30.40Q262.60-25 265-22.70Q267.40-20.40 272.80-20.40Q277.60-20.40 279.75-22.70Q281.90-25 282.20-30.40Q282.40-32.80 282.40-37.10Q282.40-41.40 282.20-46.60L311.40-46.60Q311.60-45.60 311.70-41.25Q311.80-36.90 311.60-33.60Q310.70-14.60 301.65-6.30Q292.60 2 272.80 2M262-75.60L282.40-75.60Q282.40-79.20 282.35-82.40Q282.30-85.60 282.25-87.80Q282.20-90 282.20-90.60Q281.90-95.40 279.65-97.50Q277.40-99.60 272.40-99.60Q267.20-99.60 264.90-97.50Q262.60-95.40 262.40-90.60Q262.30-87 262.25-83.25Q262.20-79.50 262-75.60M360.60 2Q340.10 2 330.70-6.30Q321.30-14.60 320.20-33.60QNaN-37 319.90-44.05Q319.80-51.10 319.80-59.40Q319.80-67.70 319.90-75QNaN-82.30 320.20-86Q321.60-105.40 330.85-113.70Q340.10-122 360.20-122Q380.30-122 389.40-113.90Q398.50-105.80 399.40-87.20Q399.50-85 399.55-79.45Q399.60-73.90 399.55-67.25Q399.50-60.60 399.20-55L349.80-55Q349.80-48.60 349.95-42.35Q350.10-36.10 350.20-30.40Q350.40-25 352.80-22.70Q355.20-20.40 360.60-20.40Q365.40-20.40 367.55-22.70Q369.70-25 NaN-30.40Q370.20-32.80 370.20-37.10Q370.20-41.40 NaN-46.60L399.20-46.60Q399.40-45.60 399.50-41.25Q399.60-36.90 399.40-33.60Q398.50-14.60 389.45-6.30Q380.40 2 360.60 2M349.80-75.60L370.20-75.60Q370.20-79.20 370.15-82.40Q370.10-85.60 370.05-87.80QNaN-90 NaN-90.60Q369.70-95.40 367.45-97.50Q365.20-99.60 360.20-99.60QNaN-99.60 352.70-97.50Q350.40-95.40 350.20-90.60Q350.10-87 350.05-83.25QNaN-79.50 349.80-75.60" fill="#C9A227"/>
</svg>
