<svg xmlns="http://www.w3.org/2000/svg" viewBox="0 0 278 100" fill="none">
  <g transform="skewX(-8)">
    <path d="M22.70 80.96Q12.86 80.96 8.35 76.98Q3.84 72.99 3.31 63.87Q3.22 62.24 3.17 58.86Q3.12 55.47 3.12 51.49Q3.12 47.50 3.17 44Q3.22 40.50 3.31 38.72Q3.98 29.41 8.42 25.42Q12.86 21.44 22.51 21.44Q32.16 21.44 36.53 25.33Q40.90 29.22 41.33 38.14Q41.38 39.20 41.40 41.86Q41.42 44.53 41.40 47.72Q41.38 50.91 41.23 53.60L17.52 53.60Q17.52 56.67 17.59 59.67Q17.66 62.67 17.71 65.41Q17.81 68 18.96 69.10Q20.11 70.21 22.70 70.21Q25.01 70.21 26.04 69.10Q27.07 68 27.22 65.41Q27.31 64.26 27.31 62.19Q27.31 60.13 27.22 57.63L41.23 57.63Q41.33 58.11 41.38 60.20Q41.42 62.29 41.33 63.87Q40.90 72.99 36.55 76.98Q32.21 80.96 22.70 80.96M17.52 43.71L27.31 43.71Q27.31 41.98 27.29 40.45Q27.26 38.91 27.24 37.86Q27.22 36.80 27.22 36.51Q27.07 34.21 25.99 33.20Q24.91 32.19 22.51 32.19Q20.02 32.19 18.91 33.20Q17.81 34.21 17.71 36.51Q17.66 38.24 17.64 40.04Q17.62 41.84 17.52 43.71" fill="#F5F5F0"/>
    <circle cx="66.1" cy="48" r="22" stroke="#F5F5F0" stroke-width="6" fill="none"/>
    <circle cx="111.1" cy="48" r="22" stroke="#F5F5F0" stroke-width="6" fill="none"/>
    <path d="M150.24 80.96Q144.29 80.96 141.05 77.19Q137.81 73.42 137.38 64.74Q137.28 62.48 137.23 58.86Q137.18 55.23 137.18 51.20Q137.18 47.17 137.23 43.54Q137.28 39.92 137.38 37.66Q137.81 28.93 141.14 25.18Q144.48 21.44 150.43 21.44Q154.99 21.44 157.18 23.31Q159.36 25.18 161.38 28.64L163.39 28.64L163.39 3.20L177.79 3.20L177.79 80L163.39 80L163.39 73.76L161.38 73.76Q159.36 77.22 157.08 79.09Q154.80 80.96 150.24 80.96M156.19 70.50Q158.16 70.50 160.34 69.37Q162.53 68.24 163.39 66.37L163.39 36.03Q162.53 34.16 160.34 33.03Q158.16 31.90 156.19 31.90Q153.98 31.90 152.95 33.01Q151.92 34.11 151.78 36.42Q151.54 40.59 151.46 46.06Q151.39 51.54 151.46 56.89Q151.54 62.24 151.78 65.98Q151.92 68.29 152.95 69.39Q153.98 70.50 156.19 70.50M202.51 80.96Q192.67 80.96 188.16 76.98Q183.65 72.99 183.12 63.87Q183.02 62.24 182.98 58.86Q182.93 55.47 182.93 51.49Q182.93 47.50 182.98 44Q183.02 40.50 183.12 38.72Q183.79 29.41 188.23 25.42Q192.67 21.44 202.32 21.44Q211.97 21.44 216.34 25.33Q220.70 29.22 221.14 38.14Q221.18 39.20 221.21 41.86Q221.23 44.53 221.21 47.72Q221.18 50.91 221.04 53.60L197.33 53.60Q197.33 56.67 197.40 59.67Q197.47 62.67 197.52 65.41Q197.62 68 198.77 69.10Q199.92 70.21 202.51 70.21Q204.82 70.21 205.85 69.10Q206.88 68 207.02 65.41Q207.12 64.26 207.12 62.19Q207.12 60.13 207.02 57.63L221.04 57.63Q221.14 58.11 221.18 60.20Q221.23 62.29 221.14 63.87Q220.70 72.99 216.36 76.98Q212.02 80.96 202.51 80.96M197.33 43.71L207.12 43.71Q207.12 41.98 207.10 40.45Q207.07 38.91 207.05 37.86Q207.02 36.80 207.02 36.51Q206.88 34.21 205.80 33.20Q204.72 32.19 202.32 32.19Q199.82 32.19 198.72 33.20Q197.62 34.21 197.52 36.51Q197.47 38.24 197.45 40.04Q197.42 41.84 197.33 43.71M246.58 80.96Q236.74 80.96 232.22 76.98Q227.71 72.99 227.18 63.87Q227.09 62.24 227.04 58.86Q226.99 55.47 226.99 51.49Q226.99 47.50 227.04 44Q227.09 40.50 227.18 38.72Q227.86 29.41 232.30 25.42Q236.74 21.44 246.38 21.44Q256.03 21.44 260.40 25.33Q264.77 29.22 265.20 38.14Q265.25 39.20 265.27 41.86Q265.30 44.53 265.27 47.72Q265.25 50.91 265.10 53.60L241.39 53.60Q241.39 56.67 241.46 59.67Q241.54 62.67 241.58 65.41Q241.68 68 242.83 69.10Q243.98 70.21 246.58 70.21Q248.88 70.21 249.91 69.10Q250.94 68 251.09 65.41Q251.18 64.26 251.18 62.19Q251.18 60.13 251.09 57.63L265.10 57.63Q265.20 58.11 265.25 60.20Q265.30 62.29 265.20 63.87Q264.77 72.99 260.42 76.98Q256.08 80.96 246.58 80.96M241.39 43.71L251.18 43.71Q251.18 41.98 251.16 40.45Q251.14 38.91 251.11 37.86Q251.09 36.80 251.09 36.51Q250.94 34.21 249.86 33.20Q248.78 32.19 246.38 32.19Q243.89 32.19 242.78 33.20Q241.68 34.21 241.58 36.51Q241.54 38.24 241.51 40.04Q241.49 41.84 241.39 43.71" fill="#F5F5F0"/>
  </g>
</svg>